<svg width="41" height="42" viewBox="0 0 41 42" fill="none" xmlns="http://www.w3.org/2000/svg">
<mask id="mask0_92_36" style="mask-type:alpha" maskUnits="userSpaceOnUse" x="8" y="0" width="25" height="24">
<rect x="8.21362" width="24" height="24" fill="#D9D9D9"/>
</mask>
<g mask="url(#mask0_92_36)">
<path d="M14.0636 17.1C14.9136 16.45 15.8636 15.9375 16.9136 15.5625C17.9636 15.1875 19.0636 15 20.2136 15C21.3636 15 22.4636 15.1875 23.5136 15.5625C24.5636 15.9375 25.5136 16.45 26.3636 17.1C26.947 16.4167 27.4011 15.6417 27.7261 14.775C28.0511 13.9083 28.2136 12.9833 28.2136 12C28.2136 9.78333 27.4345 7.89583 25.8761 6.3375C24.3178 4.77917 22.4303 4 20.2136 4C17.997 4 16.1095 4.77917 14.5511 6.3375C12.9928 7.89583 12.2136 9.78333 12.2136 12C12.2136 12.9833 12.3761 13.9083 12.7011 14.775C13.0261 15.6417 13.4803 16.4167 14.0636 17.1ZM17.7261 11.9875C17.0511 11.3125 16.7136 10.4833 16.7136 9.5C16.7136 8.51667 17.0511 7.6875 17.7261 7.0125C18.4011 6.3375 19.2303 6 20.2136 6C21.197 6 22.0261 6.3375 22.7011 7.0125C23.3761 7.6875 23.7136 8.51667 23.7136 9.5C23.7136 10.4833 23.3761 11.3125 22.7011 11.9875C22.0261 12.6625 21.197 13 20.2136 13C19.2303 13 18.4011 12.6625 17.7261 11.9875ZM20.2136 22C18.8303 22 17.5303 21.7375 16.3136 21.2125C15.097 20.6875 14.0386 19.975 13.1386 19.075C12.2386 18.175 11.5261 17.1167 11.0011 15.9C10.4761 14.6833 10.2136 13.3833 10.2136 12C10.2136 10.6167 10.4761 9.31667 11.0011 8.1C11.5261 6.88333 12.2386 5.825 13.1386 4.925C14.0386 4.025 15.097 3.3125 16.3136 2.7875C17.5303 2.2625 18.8303 2 20.2136 2C21.597 2 22.897 2.2625 24.1136 2.7875C25.3303 3.3125 26.3886 4.025 27.2886 4.925C28.1886 5.825 28.9011 6.88333 29.4261 8.1C29.9511 9.31667 30.2136 10.6167 30.2136 12C30.2136 13.3833 29.9511 14.6833 29.4261 15.9C28.9011 17.1167 28.1886 18.175 27.2886 19.075C26.3886 19.975 25.3303 20.6875 24.1136 21.2125C22.897 21.7375 21.597 22 20.2136 22ZM22.7136 19.6125C23.497 19.3542 24.2136 18.9833 24.8636 18.5C24.2136 18.0167 23.497 17.6458 22.7136 17.3875C21.9303 17.1292 21.097 17 20.2136 17C19.3303 17 18.497 17.1292 17.7136 17.3875C16.9303 17.6458 16.2136 18.0167 15.5636 18.5C16.2136 18.9833 16.9303 19.3542 17.7136 19.6125C18.497 19.8708 19.3303 20 20.2136 20C21.097 20 21.9303 19.8708 22.7136 19.6125ZM21.2886 10.575C21.572 10.2917 21.7136 9.93333 21.7136 9.5C21.7136 9.06667 21.572 8.70833 21.2886 8.425C21.0053 8.14167 20.647 8 20.2136 8C19.7803 8 19.422 8.14167 19.1386 8.425C18.8553 8.70833 18.7136 9.06667 18.7136 9.5C18.7136 9.93333 18.8553 10.2917 19.1386 10.575C19.422 10.8583 19.7803 11 20.2136 11C20.647 11 21.0053 10.8583 21.2886 10.575Z" fill="#1C1B1F" fill-opacity="0.5"/>
</g>
<path d="M9.19644e-05 38.75L3.12409 31.116H3.87209L6.98509 38.75H5.86309L3.30009 32.293H3.68509L1.10009 38.75H9.19644e-05ZM1.48509 37.023V36.121H5.50009V37.023H1.48509ZM10.3183 38.86C9.80493 38.86 9.33926 38.739 8.92126 38.497C8.5106 38.255 8.18426 37.9287 7.94226 37.518C7.7076 37.1 7.59026 36.638 7.59026 36.132C7.59026 35.6187 7.7076 35.1567 7.94226 34.746C8.18426 34.3353 8.5106 34.0127 8.92126 33.778C9.33926 33.536 9.80493 33.415 10.3183 33.415C10.7216 33.415 11.0956 33.492 11.4403 33.646C11.7849 33.7927 12.0819 34.009 12.3313 34.295L11.6713 34.955C11.5099 34.7643 11.3119 34.6213 11.0773 34.526C10.8499 34.4233 10.5969 34.372 10.3183 34.372C9.98826 34.372 9.69493 34.449 9.43826 34.603C9.1816 34.7497 8.97993 34.955 8.83326 35.219C8.6866 35.483 8.61326 35.7873 8.61326 36.132C8.61326 36.4767 8.6866 36.781 8.83326 37.045C8.97993 37.309 9.1816 37.518 9.43826 37.672C9.69493 37.826 9.98826 37.903 10.3183 37.903C10.5969 37.903 10.8499 37.8553 11.0773 37.76C11.3119 37.6573 11.5136 37.5107 11.6823 37.32L12.3313 37.98C12.0893 38.2587 11.7923 38.475 11.4403 38.629C11.0956 38.783 10.7216 38.86 10.3183 38.86ZM15.8127 38.86C15.2993 38.86 14.8337 38.739 14.4157 38.497C14.005 38.255 13.6787 37.9287 13.4367 37.518C13.202 37.1 13.0847 36.638 13.0847 36.132C13.0847 35.6187 13.202 35.1567 13.4367 34.746C13.6787 34.3353 14.005 34.0127 14.4157 33.778C14.8337 33.536 15.2993 33.415 15.8127 33.415C16.216 33.415 16.59 33.492 16.9347 33.646C17.2793 33.7927 17.5763 34.009 17.8257 34.295L17.1657 34.955C17.0043 34.7643 16.8063 34.6213 16.5717 34.526C16.3443 34.4233 16.0913 34.372 15.8127 34.372C15.4827 34.372 15.1893 34.449 14.9327 34.603C14.676 34.7497 14.4743 34.955 14.3277 35.219C14.181 35.483 14.1077 35.7873 14.1077 36.132C14.1077 36.4767 14.181 36.781 14.3277 37.045C14.4743 37.309 14.676 37.518 14.9327 37.672C15.1893 37.826 15.4827 37.903 15.8127 37.903C16.0913 37.903 16.3443 37.8553 16.5717 37.76C16.8063 37.6573 17.008 37.5107 17.1767 37.32L17.8257 37.98C17.5837 38.2587 17.2867 38.475 16.9347 38.629C16.59 38.783 16.216 38.86 15.8127 38.86ZM21.3071 38.86C20.7938 38.86 20.3318 38.739 19.9211 38.497C19.5104 38.255 19.1841 37.9287 18.9421 37.518C18.7001 37.1 18.5791 36.6343 18.5791 36.121C18.5791 35.615 18.7001 35.1603 18.9421 34.757C19.1841 34.3463 19.5104 34.02 19.9211 33.778C20.3318 33.536 20.7938 33.415 21.3071 33.415C21.8131 33.415 22.2714 33.536 22.6821 33.778C23.1001 34.0127 23.4301 34.3353 23.6721 34.746C23.9141 35.1567 24.0351 35.615 24.0351 36.121C24.0351 36.6343 23.9141 37.1 23.6721 37.518C23.4301 37.9287 23.1001 38.255 22.6821 38.497C22.2714 38.739 21.8131 38.86 21.3071 38.86ZM21.3071 37.903C21.6371 37.903 21.9304 37.826 22.1871 37.672C22.4438 37.518 22.6454 37.309 22.7921 37.045C22.9388 36.7737 23.0121 36.4657 23.0121 36.121C23.0121 35.7837 22.9351 35.483 22.7811 35.219C22.6344 34.955 22.4328 34.7497 22.1761 34.603C21.9268 34.449 21.6371 34.372 21.3071 34.372C20.9771 34.372 20.6838 34.449 20.4271 34.603C20.1704 34.7497 19.9688 34.955 19.8221 35.219C19.6754 35.483 19.6021 35.7837 19.6021 36.121C19.6021 36.4657 19.6754 36.7737 19.8221 37.045C19.9688 37.309 20.1704 37.518 20.4271 37.672C20.6838 37.826 20.9771 37.903 21.3071 37.903ZM27.4716 38.86C27.0462 38.86 26.6612 38.7647 26.3166 38.574C25.9792 38.376 25.7152 38.1047 25.5246 37.76C25.3339 37.4153 25.2386 37.0157 25.2386 36.561V33.525H26.2286V36.517C26.2286 36.803 26.2762 37.0523 26.3716 37.265C26.4742 37.4703 26.6209 37.628 26.8116 37.738C27.0022 37.848 27.2259 37.903 27.4826 37.903C27.8712 37.903 28.1756 37.782 28.3956 37.54C28.6156 37.2907 28.7256 36.9497 28.7256 36.517V33.525H29.7156V36.561C29.7156 37.0157 29.6202 37.4153 29.4296 37.76C29.2389 38.1047 28.9749 38.376 28.6376 38.574C28.3076 38.7647 27.9189 38.86 27.4716 38.86ZM34.9584 38.75V35.703C34.9584 35.307 34.8338 34.9807 34.5844 34.724C34.3351 34.4673 34.0124 34.339 33.6164 34.339C33.3524 34.339 33.1178 34.3977 32.9124 34.515C32.7071 34.6323 32.5458 34.7937 32.4284 34.999C32.3111 35.2043 32.2524 35.439 32.2524 35.703L31.8454 35.472C31.8454 35.076 31.9334 34.724 32.1094 34.416C32.2854 34.108 32.5311 33.866 32.8464 33.69C33.1618 33.5067 33.5174 33.415 33.9134 33.415C34.3094 33.415 34.6578 33.514 34.9584 33.712C35.2664 33.91 35.5084 34.1703 35.6844 34.493C35.8604 34.8083 35.9484 35.1457 35.9484 35.505V38.75H34.9584ZM31.2624 38.75V33.525H32.2524V38.75H31.2624ZM38.2473 38.75V31.336H39.2373V38.75H38.2473ZM36.9603 34.427V33.525H40.5243V34.427H36.9603Z" fill="black" fill-opacity="0.3"/>
</svg>
