<svg width="64" height="42" viewBox="0 0 64 42" fill="none" xmlns="http://www.w3.org/2000/svg">
<mask id="mask0_149_11" style="mask-type:alpha" maskUnits="userSpaceOnUse" x="20" y="0" width="24" height="24">
<rect x="20" width="24" height="24" fill="#D9D9D9"/>
</mask>
<g mask="url(#mask0_149_11)">
<path d="M25 22C24.45 22 23.9792 21.8042 23.5875 21.4125C23.1958 21.0208 23 20.55 23 20V6C23 5.45 23.1958 4.97917 23.5875 4.5875C23.9792 4.19583 24.45 4 25 4H26V3C26 2.71667 26.0958 2.47917 26.2875 2.2875C26.4792 2.09583 26.7167 2 27 2C27.2833 2 27.5208 2.09583 27.7125 2.2875C27.9042 2.47917 28 2.71667 28 3V4H36V3C36 2.71667 36.0958 2.47917 36.2875 2.2875C36.4792 2.09583 36.7167 2 37 2C37.2833 2 37.5208 2.09583 37.7125 2.2875C37.9042 2.47917 38 2.71667 38 3V4H39C39.55 4 40.0208 4.19583 40.4125 4.5875C40.8042 4.97917 41 5.45 41 6V12.375C41 12.6583 40.9042 12.8958 40.7125 13.0875C40.5208 13.2792 40.2833 13.375 40 13.375C39.7167 13.375 39.4792 13.2792 39.2875 13.0875C39.0958 12.8958 39 12.6583 39 12.375V10H25V20H31.225C31.5083 20 31.7417 20.0958 31.925 20.2875C32.1083 20.4792 32.2 20.7167 32.2 21C32.2 21.2833 32.1042 21.5208 31.9125 21.7125C31.7208 21.9042 31.4833 22 31.2 22H25ZM25 8H39V6H25V8ZM36.525 19.675L40.075 16.125C40.275 15.925 40.5083 15.825 40.775 15.825C41.0417 15.825 41.275 15.925 41.475 16.125C41.675 16.325 41.775 16.5625 41.775 16.8375C41.775 17.1125 41.675 17.35 41.475 17.55L37.25 21.8C37.05 22 36.8125 22.1 36.5375 22.1C36.2625 22.1 36.025 22 35.825 21.8L33.7 19.675C33.5 19.475 33.4 19.2375 33.4 18.9625C33.4 18.6875 33.5 18.45 33.7 18.25C33.9 18.05 34.1375 17.95 34.4125 17.95C34.6875 17.95 34.925 18.05 35.125 18.25L36.525 19.675Z" fill="#1C1B1F" fill-opacity="0.5"/>
</g>
<path d="M1.1438 38.75V31.116H1.8698L5.1038 36.429H4.6088L7.8428 31.116H8.5688V38.75H7.5348V32.931L7.7768 32.997L5.2248 37.188H4.4988L1.9468 32.997L2.1778 32.931V38.75H1.1438ZM12.1313 38.794L9.86534 33.525H10.9653L12.6483 37.65H12.2963L14.0673 33.525H15.1673L12.7253 38.794H12.1313ZM10.6353 40.939L12.1753 37.782L12.7253 38.794L11.7353 40.939H10.6353ZM19.6628 38.75V37.848H21.9728C22.4128 37.848 22.7575 37.7197 23.0068 37.463C23.2561 37.199 23.3808 36.8837 23.3808 36.517C23.3808 36.2677 23.3258 36.044 23.2158 35.846C23.1058 35.6407 22.9445 35.4793 22.7318 35.362C22.5265 35.2447 22.2845 35.186 22.0058 35.186H19.6628V34.284H21.8518C22.2185 34.284 22.5081 34.1887 22.7208 33.998C22.9408 33.8 23.0508 33.5177 23.0508 33.151C23.0508 32.7843 22.9371 32.5057 22.7098 32.315C22.4825 32.117 22.1818 32.018 21.8078 32.018H19.6628V31.116H21.8298C22.3285 31.116 22.7428 31.2077 23.0728 31.391C23.4101 31.567 23.6631 31.8017 23.8318 32.095C24.0078 32.3883 24.0958 32.711 24.0958 33.063C24.0958 33.4737 23.9821 33.833 23.7548 34.141C23.5348 34.449 23.2085 34.691 22.7758 34.867L22.8638 34.537C23.3551 34.713 23.7365 34.9807 24.0078 35.34C24.2865 35.692 24.4258 36.11 24.4258 36.594C24.4258 36.9973 24.3268 37.3603 24.1288 37.683C23.9308 38.0057 23.6448 38.266 23.2708 38.464C22.9041 38.6547 22.4531 38.75 21.9178 38.75H19.6628ZM18.9698 38.75V31.116H20.0038V38.75H18.9698ZM28.2543 38.86C27.741 38.86 27.279 38.739 26.8683 38.497C26.4577 38.255 26.1313 37.9287 25.8893 37.518C25.6473 37.1 25.5263 36.6343 25.5263 36.121C25.5263 35.615 25.6473 35.1603 25.8893 34.757C26.1313 34.3463 26.4577 34.02 26.8683 33.778C27.279 33.536 27.741 33.415 28.2543 33.415C28.7603 33.415 29.2187 33.536 29.6293 33.778C30.0473 34.0127 30.3773 34.3353 30.6193 34.746C30.8613 35.1567 30.9823 35.615 30.9823 36.121C30.9823 36.6343 30.8613 37.1 30.6193 37.518C30.3773 37.9287 30.0473 38.255 29.6293 38.497C29.2187 38.739 28.7603 38.86 28.2543 38.86ZM28.2543 37.903C28.5843 37.903 28.8777 37.826 29.1343 37.672C29.391 37.518 29.5927 37.309 29.7393 37.045C29.886 36.7737 29.9593 36.4657 29.9593 36.121C29.9593 35.7837 29.8823 35.483 29.7283 35.219C29.5817 34.955 29.38 34.7497 29.1233 34.603C28.874 34.449 28.5843 34.372 28.2543 34.372C27.9243 34.372 27.631 34.449 27.3743 34.603C27.1177 34.7497 26.916 34.955 26.7693 35.219C26.6227 35.483 26.5493 35.7837 26.5493 36.121C26.5493 36.4657 26.6227 36.7737 26.7693 37.045C26.916 37.309 27.1177 37.518 27.3743 37.672C27.631 37.826 27.9243 37.903 28.2543 37.903ZM34.7048 38.86C34.1915 38.86 33.7295 38.739 33.3188 38.497C32.9081 38.255 32.5818 37.9287 32.3398 37.518C32.0978 37.1 31.9768 36.6343 31.9768 36.121C31.9768 35.615 32.0978 35.1603 32.3398 34.757C32.5818 34.3463 32.9081 34.02 33.3188 33.778C33.7295 33.536 34.1915 33.415 34.7048 33.415C35.2108 33.415 35.6691 33.536 36.0798 33.778C36.4978 34.0127 36.8278 34.3353 37.0698 34.746C37.3118 35.1567 37.4328 35.615 37.4328 36.121C37.4328 36.6343 37.3118 37.1 37.0698 37.518C36.8278 37.9287 36.4978 38.255 36.0798 38.497C35.6691 38.739 35.2108 38.86 34.7048 38.86ZM34.7048 37.903C35.0348 37.903 35.3281 37.826 35.5848 37.672C35.8415 37.518 36.0431 37.309 36.1898 37.045C36.3365 36.7737 36.4098 36.4657 36.4098 36.121C36.4098 35.7837 36.3328 35.483 36.1788 35.219C36.0321 34.955 35.8305 34.7497 35.5738 34.603C35.3245 34.449 35.0348 34.372 34.7048 34.372C34.3748 34.372 34.0815 34.449 33.8248 34.603C33.5681 34.7497 33.3665 34.955 33.2198 35.219C33.0731 35.483 32.9998 35.7837 32.9998 36.121C32.9998 36.4657 33.0731 36.7737 33.2198 37.045C33.3665 37.309 33.5681 37.518 33.8248 37.672C34.0815 37.826 34.3748 37.903 34.7048 37.903ZM42.1123 38.75L39.6703 36.077L42.0903 33.525H43.2893L40.5943 36.341L40.6383 35.769L43.3883 38.75H42.1123ZM38.7683 38.75V30.896H39.7583V38.75H38.7683ZM44.2844 38.75V33.525H45.2744V38.75H44.2844ZM44.7794 32.48C44.5961 32.48 44.4458 32.4213 44.3284 32.304C44.2111 32.1793 44.1524 32.0253 44.1524 31.842C44.1524 31.666 44.2111 31.5193 44.3284 31.402C44.4458 31.2773 44.5961 31.215 44.7794 31.215C44.9628 31.215 45.1131 31.2773 45.2304 31.402C45.3478 31.5193 45.4064 31.666 45.4064 31.842C45.4064 32.0253 45.3478 32.1793 45.2304 32.304C45.1131 32.4213 44.9628 32.48 44.7794 32.48ZM50.6494 38.75V35.703C50.6494 35.307 50.5247 34.9807 50.2754 34.724C50.026 34.4673 49.7034 34.339 49.3074 34.339C49.0434 34.339 48.8087 34.3977 48.6034 34.515C48.398 34.6323 48.2367 34.7937 48.1194 34.999C48.002 35.2043 47.9434 35.439 47.9434 35.703L47.5364 35.472C47.5364 35.076 47.6244 34.724 47.8004 34.416C47.9764 34.108 48.222 33.866 48.5374 33.69C48.8527 33.5067 49.2084 33.415 49.6044 33.415C50.0004 33.415 50.3487 33.514 50.6494 33.712C50.9574 33.91 51.1994 34.1703 51.3754 34.493C51.5514 34.8083 51.6394 35.1457 51.6394 35.505V38.75H50.6494ZM46.9534 38.75V33.525H47.9434V38.75H46.9534ZM55.3667 41.049C54.8314 41.049 54.3547 40.95 53.9367 40.752C53.5261 40.554 53.1961 40.2753 52.9467 39.916L53.5847 39.267C53.7974 39.5383 54.0504 39.7437 54.3437 39.883C54.6371 40.0297 54.9854 40.103 55.3887 40.103C55.9241 40.103 56.3457 39.96 56.6537 39.674C56.9691 39.3953 57.1267 39.0177 57.1267 38.541V37.243L57.3027 36.066L57.1267 34.9V33.525H58.1167V38.541C58.1167 39.0397 57.9994 39.476 57.7647 39.85C57.5374 40.224 57.2147 40.5173 56.7967 40.73C56.3861 40.9427 55.9094 41.049 55.3667 41.049ZM55.3667 38.662C54.8901 38.662 54.4611 38.5483 54.0797 38.321C53.7057 38.0937 53.4087 37.782 53.1887 37.386C52.9687 36.9827 52.8587 36.5317 52.8587 36.033C52.8587 35.5343 52.9687 35.0907 53.1887 34.702C53.4087 34.306 53.7057 33.9943 54.0797 33.767C54.4611 33.5323 54.8901 33.415 55.3667 33.415C55.7774 33.415 56.1404 33.4957 56.4557 33.657C56.7711 33.8183 57.0204 34.0457 57.2037 34.339C57.3944 34.625 57.4971 34.9623 57.5117 35.351V36.737C57.4897 37.1183 57.3834 37.4557 57.1927 37.749C57.0094 38.035 56.7601 38.2587 56.4447 38.42C56.1294 38.5813 55.7701 38.662 55.3667 38.662ZM55.5647 37.727C55.8874 37.727 56.1697 37.6573 56.4117 37.518C56.6611 37.3787 56.8517 37.1843 56.9837 36.935C57.1157 36.6783 57.1817 36.3813 57.1817 36.044C57.1817 35.7067 57.1121 35.4133 56.9727 35.164C56.8407 34.9073 56.6537 34.7093 56.4117 34.57C56.1697 34.4233 55.8837 34.35 55.5537 34.35C55.2237 34.35 54.9341 34.4233 54.6847 34.57C54.4354 34.7093 54.2374 34.9073 54.0907 35.164C53.9514 35.4133 53.8817 35.703 53.8817 36.033C53.8817 36.363 53.9514 36.6563 54.0907 36.913C54.2374 37.1697 54.4354 37.3713 54.6847 37.518C54.9414 37.6573 55.2347 37.727 55.5647 37.727ZM61.4509 38.86C61.1575 38.86 60.8789 38.8233 60.6149 38.75C60.3582 38.6693 60.1199 38.5593 59.8999 38.42C59.6799 38.2733 59.4892 38.101 59.3279 37.903L59.9659 37.265C60.1565 37.4997 60.3765 37.6757 60.6259 37.793C60.8752 37.903 61.1539 37.958 61.4619 37.958C61.7699 37.958 62.0082 37.9067 62.1769 37.804C62.3455 37.694 62.4299 37.5437 62.4299 37.353C62.4299 37.1623 62.3602 37.0157 62.2209 36.913C62.0889 36.803 61.9165 36.715 61.7039 36.649C61.4912 36.5757 61.2639 36.506 61.0219 36.44C60.7872 36.3667 60.5635 36.275 60.3509 36.165C60.1382 36.055 59.9622 35.9047 59.8229 35.714C59.6909 35.5233 59.6249 35.2703 59.6249 34.955C59.6249 34.6397 59.7019 34.3683 59.8559 34.141C60.0099 33.9063 60.2225 33.7267 60.4939 33.602C60.7725 33.4773 61.1062 33.415 61.4949 33.415C61.9055 33.415 62.2685 33.4883 62.5839 33.635C62.9065 33.7743 63.1705 33.987 63.3759 34.273L62.7379 34.911C62.5912 34.7203 62.4079 34.5737 62.1879 34.471C61.9752 34.3683 61.7332 34.317 61.4619 34.317C61.1759 34.317 60.9559 34.3683 60.8019 34.471C60.6552 34.5663 60.5819 34.702 60.5819 34.878C60.5819 35.054 60.6479 35.1897 60.7799 35.285C60.9119 35.3803 61.0842 35.461 61.2969 35.527C61.5169 35.593 61.7442 35.6627 61.9789 35.736C62.2135 35.802 62.4372 35.8937 62.6499 36.011C62.8625 36.1283 63.0349 36.286 63.1669 36.484C63.3062 36.682 63.3759 36.9423 63.3759 37.265C63.3759 37.7563 63.1999 38.145 62.8479 38.431C62.5032 38.717 62.0375 38.86 61.4509 38.86Z" fill="black" fill-opacity="0.3"/>
</svg>
