<svg width="33" height="42" viewBox="0 0 33 42" fill="none" xmlns="http://www.w3.org/2000/svg">
<mask id="mask0_92_31" style="mask-type:alpha" maskUnits="userSpaceOnUse" x="4" y="0" width="25" height="24">
<rect x="4.19556" width="24" height="24" fill="#D9D9D9"/>
</mask>
<g mask="url(#mask0_92_31)">
<path d="M15.9456 19H15.6956C13.3289 19 11.3206 18.175 9.67056 16.525C8.02056 14.875 7.19556 12.8667 7.19556 10.5C7.19556 8.13333 8.02056 6.125 9.67056 4.475C11.3206 2.825 13.3289 2 15.6956 2C16.8789 2 17.9831 2.22083 19.0081 2.6625C20.0331 3.10417 20.9331 3.7125 21.7081 4.4875C22.4831 5.2625 23.0914 6.1625 23.5331 7.1875C23.9747 8.2125 24.1956 9.31667 24.1956 10.5C24.1956 12.7333 23.5664 14.8083 22.3081 16.725C21.0497 18.6417 19.4622 20.1417 17.5456 21.225C17.3789 21.3083 17.2122 21.3542 17.0456 21.3625C16.8789 21.3708 16.7289 21.3333 16.5956 21.25C16.4622 21.1667 16.3456 21.0583 16.2456 20.925C16.1456 20.7917 16.0872 20.6333 16.0706 20.45L15.9456 19ZM18.1956 18.35C19.3789 17.35 20.3414 16.1792 21.0831 14.8375C21.8247 13.4958 22.1956 12.05 22.1956 10.5C22.1956 8.68333 21.5664 7.14583 20.3081 5.8875C19.0497 4.62917 17.5122 4 15.6956 4C13.8789 4 12.3414 4.62917 11.0831 5.8875C9.82472 7.14583 9.19556 8.68333 9.19556 10.5C9.19556 12.3167 9.82472 13.8542 11.0831 15.1125C12.3414 16.3708 13.8789 17 15.6956 17H18.1956V18.35ZM16.3956 15.675C16.5956 15.475 16.6956 15.2333 16.6956 14.95C16.6956 14.6667 16.5956 14.425 16.3956 14.225C16.1956 14.025 15.9539 13.925 15.6706 13.925C15.3872 13.925 15.1456 14.025 14.9456 14.225C14.7456 14.425 14.6456 14.6667 14.6456 14.95C14.6456 15.2333 14.7456 15.475 14.9456 15.675C15.1456 15.875 15.3872 15.975 15.6706 15.975C15.9539 15.975 16.1956 15.875 16.3956 15.675ZM13.4956 8.375C13.6789 8.45833 13.8622 8.4625 14.0456 8.3875C14.2289 8.3125 14.3789 8.19167 14.4956 8.025C14.6456 7.825 14.8206 7.67083 15.0206 7.5625C15.2206 7.45417 15.4456 7.4 15.6956 7.4C16.0956 7.4 16.4206 7.5125 16.6706 7.7375C16.9206 7.9625 17.0456 8.25 17.0456 8.6C17.0456 8.81667 16.9831 9.03333 16.8581 9.25C16.7331 9.46667 16.5122 9.73333 16.1956 10.05C15.7789 10.4167 15.4706 10.7625 15.2706 11.0875C15.0706 11.4125 14.9706 11.7417 14.9706 12.075C14.9706 12.275 15.0414 12.4458 15.1831 12.5875C15.3247 12.7292 15.4956 12.8 15.6956 12.8C15.8956 12.8 16.0622 12.725 16.1956 12.575C16.3289 12.425 16.4289 12.25 16.4956 12.05C16.5789 11.7667 16.7289 11.5083 16.9456 11.275C17.1622 11.0417 17.3622 10.8333 17.5456 10.65C17.8956 10.3 18.1581 9.95 18.3331 9.6C18.5081 9.25 18.5956 8.9 18.5956 8.55C18.5956 7.78333 18.3331 7.16667 17.8081 6.7C17.2831 6.23333 16.5789 6 15.6956 6C15.1622 6 14.6706 6.12917 14.2206 6.3875C13.7706 6.64583 13.4039 7 13.1206 7.45C13.0206 7.63333 13.0081 7.8125 13.0831 7.9875C13.1581 8.1625 13.2956 8.29167 13.4956 8.375Z" fill="#1C1B1F" fill-opacity="0.5"/>
</g>
<path d="M5.51512 38.75V31.116H6.54912V38.75H5.51512ZM10.4431 38.75V31.116H11.4771V38.75H10.4431ZM6.21912 35.274V34.328H10.6961V35.274H6.21912ZM15.7457 38.86C15.225 38.86 14.7557 38.7427 14.3377 38.508C13.9197 38.266 13.5897 37.9397 13.3477 37.529C13.1057 37.1183 12.9847 36.6527 12.9847 36.132C12.9847 35.6187 13.102 35.1567 13.3367 34.746C13.5787 34.3353 13.9014 34.0127 14.3047 33.778C14.7154 33.536 15.1737 33.415 15.6797 33.415C16.1637 33.415 16.589 33.525 16.9557 33.745C17.3297 33.965 17.6194 34.2693 17.8247 34.658C18.0374 35.0467 18.1437 35.4867 18.1437 35.978C18.1437 36.0513 18.14 36.132 18.1327 36.22C18.1254 36.3007 18.1107 36.396 18.0887 36.506H13.6777V35.681H17.5607L17.1977 36C17.1977 35.648 17.1354 35.351 17.0107 35.109C16.886 34.8597 16.71 34.669 16.4827 34.537C16.2554 34.3977 15.9804 34.328 15.6577 34.328C15.3204 34.328 15.0234 34.4013 14.7667 34.548C14.51 34.6947 14.312 34.9 14.1727 35.164C14.0334 35.428 13.9637 35.7397 13.9637 36.099C13.9637 36.4657 14.037 36.7883 14.1837 37.067C14.3304 37.3383 14.5394 37.551 14.8107 37.705C15.082 37.8517 15.3937 37.925 15.7457 37.925C16.039 37.925 16.3067 37.8737 16.5487 37.771C16.798 37.6683 17.0107 37.5143 17.1867 37.309L17.8247 37.958C17.5754 38.2513 17.2674 38.475 16.9007 38.629C16.5414 38.783 16.1564 38.86 15.7457 38.86ZM19.4432 38.75V30.896H20.4332V38.75H19.4432ZM24.8517 38.86C24.4557 38.86 24.0963 38.7793 23.7737 38.618C23.4583 38.4493 23.2053 38.2183 23.0147 37.925C22.824 37.6317 22.7177 37.298 22.6957 36.924V35.351C22.7177 34.9697 22.824 34.636 23.0147 34.35C23.2127 34.0567 23.4693 33.8293 23.7847 33.668C24.1073 33.4993 24.463 33.415 24.8517 33.415C25.3283 33.415 25.7573 33.536 26.1387 33.778C26.5273 34.02 26.8317 34.3463 27.0517 34.757C27.2717 35.1677 27.3817 35.6297 27.3817 36.143C27.3817 36.6563 27.2717 37.1183 27.0517 37.529C26.8317 37.9397 26.5273 38.266 26.1387 38.508C25.7573 38.7427 25.3283 38.86 24.8517 38.86ZM22.1017 40.939V33.525H23.0917V34.9L22.9047 36.165L23.0917 37.441V40.939H22.1017ZM24.6867 37.925C25.0167 37.925 25.3063 37.848 25.5557 37.694C25.805 37.54 26.003 37.331 26.1497 37.067C26.2963 36.7957 26.3697 36.484 26.3697 36.132C26.3697 35.7873 26.2963 35.4793 26.1497 35.208C26.003 34.9367 25.805 34.7277 25.5557 34.581C25.3063 34.427 25.0203 34.35 24.6977 34.35C24.3677 34.35 24.078 34.427 23.8287 34.581C23.5793 34.7277 23.385 34.9367 23.2457 35.208C23.1063 35.4793 23.0367 35.791 23.0367 36.143C23.0367 36.4877 23.1027 36.7957 23.2347 37.067C23.374 37.331 23.5683 37.54 23.8177 37.694C24.0743 37.848 24.364 37.925 24.6867 37.925Z" fill="black" fill-opacity="0.3"/>
</svg>
