<svg width="33" height="42" viewBox="0 0 33 42" fill="none" xmlns="http://www.w3.org/2000/svg">
<mask id="mask0_92_21" style="mask-type:alpha" maskUnits="userSpaceOnUse" x="4" y="0" width="25" height="24">
<rect x="4.19556" width="24" height="24" fill="#974A12"/>
</mask>
<g mask="url(#mask0_92_21)">
<path d="M10.1956 19H13.1956V14C13.1956 13.7167 13.2914 13.4792 13.4831 13.2875C13.6747 13.0958 13.9122 13 14.1956 13H18.1956C18.4789 13 18.7164 13.0958 18.9081 13.2875C19.0997 13.4792 19.1956 13.7167 19.1956 14V19H22.1956V10L16.1956 5.5L10.1956 10V19ZM8.19556 19V10C8.19556 9.68333 8.26639 9.38333 8.40806 9.1C8.54972 8.81667 8.74556 8.58333 8.99556 8.4L14.9956 3.9C15.3456 3.63333 15.7456 3.5 16.1956 3.5C16.6456 3.5 17.0456 3.63333 17.3956 3.9L23.3956 8.4C23.6456 8.58333 23.8414 8.81667 23.9831 9.1C24.1247 9.38333 24.1956 9.68333 24.1956 10V19C24.1956 19.55 23.9997 20.0208 23.6081 20.4125C23.2164 20.8042 22.7456 21 22.1956 21H18.1956C17.9122 21 17.6747 20.9042 17.4831 20.7125C17.2914 20.5208 17.1956 20.2833 17.1956 20V15H15.1956V20C15.1956 20.2833 15.0997 20.5208 14.9081 20.7125C14.7164 20.9042 14.4789 21 14.1956 21H10.1956C9.64556 21 9.17472 20.8042 8.78306 20.4125C8.39139 20.0208 8.19556 19.55 8.19556 19Z" fill="#5D2F09"/>
</g>
<path d="M1.81722 38.75V31.017H3.31322V38.75H1.81722ZM6.66822 38.75V31.017H8.16423V38.75H6.66822ZM2.76322 35.417V34.097H7.08622V35.417H2.76322ZM12.308 38.86C11.7726 38.86 11.2886 38.739 10.856 38.497C10.4306 38.2477 10.0896 37.914 9.83296 37.496C9.58363 37.0707 9.45896 36.5977 9.45896 36.077C9.45896 35.5563 9.58363 35.0907 9.83296 34.68C10.0823 34.262 10.4233 33.932 10.856 33.69C11.2886 33.4407 11.769 33.316 12.297 33.316C12.8396 33.316 13.3236 33.4407 13.749 33.69C14.1816 33.932 14.5226 34.262 14.772 34.68C15.0213 35.0907 15.146 35.5563 15.146 36.077C15.146 36.5977 15.0213 37.0707 14.772 37.496C14.5226 37.914 14.1816 38.2477 13.749 38.497C13.3236 38.739 12.8433 38.86 12.308 38.86ZM12.297 37.518C12.5683 37.518 12.8066 37.4593 13.012 37.342C13.2246 37.2173 13.386 37.0487 13.496 36.836C13.6133 36.616 13.672 36.3667 13.672 36.088C13.672 35.8093 13.6133 35.5637 13.496 35.351C13.3786 35.1383 13.2173 34.9733 13.012 34.856C12.8066 34.7313 12.5683 34.669 12.297 34.669C12.033 34.669 11.7983 34.7313 11.593 34.856C11.3876 34.9733 11.2263 35.1383 11.109 35.351C10.9916 35.5637 10.933 35.8093 10.933 36.088C10.933 36.3667 10.9916 36.616 11.109 36.836C11.2263 37.0487 11.3876 37.2173 11.593 37.342C11.7983 37.4593 12.033 37.518 12.297 37.518ZM16.2937 38.75V33.437H17.7347V38.75H16.2937ZM19.7587 38.75V35.615C19.7587 35.307 19.6597 35.0687 19.4617 34.9C19.271 34.724 19.0327 34.636 18.7467 34.636C18.556 34.636 18.3837 34.6763 18.2297 34.757C18.0757 34.8303 17.9547 34.9403 17.8667 35.087C17.7787 35.2337 17.7347 35.4097 17.7347 35.615L17.1737 35.34C17.1737 34.9293 17.2617 34.5737 17.4377 34.273C17.621 33.9723 17.8667 33.7413 18.1747 33.58C18.4827 33.4113 18.831 33.327 19.2197 33.327C19.5863 33.327 19.92 33.4113 20.2207 33.58C20.5213 33.7413 20.7597 33.9723 20.9357 34.273C21.1117 34.5663 21.1997 34.922 21.1997 35.34V38.75H19.7587ZM23.2237 38.75V35.615C23.2237 35.307 23.1247 35.0687 22.9267 34.9C22.736 34.724 22.4977 34.636 22.2117 34.636C22.0283 34.636 21.856 34.6763 21.6947 34.757C21.5407 34.8303 21.4197 34.9403 21.3317 35.087C21.2437 35.2337 21.1997 35.4097 21.1997 35.615L20.3747 35.417C20.404 34.9917 20.5177 34.625 20.7157 34.317C20.9137 34.0017 21.174 33.7597 21.4967 33.591C21.8193 33.415 22.1787 33.327 22.5747 33.327C22.9707 33.327 23.3263 33.4113 23.6417 33.58C23.957 33.7413 24.2063 33.976 24.3897 34.284C24.573 34.592 24.6647 34.9587 24.6647 35.384V38.75H23.2237ZM28.5937 38.86C28.0364 38.86 27.5414 38.7427 27.1087 38.508C26.6761 38.266 26.3314 37.936 26.0747 37.518C25.8254 37.1 25.7007 36.6233 25.7007 36.088C25.7007 35.56 25.8217 35.0907 26.0637 34.68C26.3131 34.262 26.6504 33.932 27.0757 33.69C27.5011 33.4407 27.9741 33.316 28.4947 33.316C29.0081 33.316 29.4591 33.4333 29.8477 33.668C30.2437 33.8953 30.5517 34.2107 30.7717 34.614C30.9991 35.01 31.1127 35.461 31.1127 35.967C31.1127 36.0623 31.1054 36.1613 31.0907 36.264C31.0834 36.3593 31.0651 36.4693 31.0357 36.594L26.5697 36.605V35.527L30.3647 35.516L29.7817 35.967C29.7671 35.6517 29.7084 35.3877 29.6057 35.175C29.5104 34.9623 29.3674 34.801 29.1767 34.691C28.9934 34.5737 28.7661 34.515 28.4947 34.515C28.2087 34.515 27.9594 34.581 27.7467 34.713C27.5341 34.8377 27.3691 35.0173 27.2517 35.252C27.1417 35.4793 27.0867 35.7507 27.0867 36.066C27.0867 36.3887 27.1454 36.671 27.2627 36.913C27.3874 37.1477 27.5634 37.331 27.7907 37.463C28.0181 37.5877 28.2821 37.65 28.5827 37.65C28.8541 37.65 29.0997 37.606 29.3197 37.518C29.5397 37.4227 29.7304 37.2833 29.8917 37.1L30.7387 37.947C30.4821 38.2477 30.1667 38.475 29.7927 38.629C29.4261 38.783 29.0264 38.86 28.5937 38.86Z" fill="#5D2F09"/>
</svg>
